<?xml version="1.0" standalone="no"?>
<!DOCTYPE svg PUBLIC "-//W3C//DTD SVG 20010904//EN"
 "http://www.w3.org/TR/2001/REC-SVG-20010904/DTD/svg10.dtd">
<svg version="1.0" xmlns="http://www.w3.org/2000/svg"
 width="300.000000pt" height="40.000000pt" viewBox="0 0 300.000000 101.000000"
 preserveAspectRatio="xMidYMid meet">
<metadata>
Created by potrace 1.10, written by Peter Selinger 2001-2011
</metadata>
<g transform="translate(0.000000,101.000000) scale(0.100000,-0.100000)"
fill="#000000" stroke="none">
<path d="M475 946 c-28 -20 -5 -42 50 -48 120 -14 193 -160 183 -365 -5 -101
-23 -144 -71 -173 -45 -28 -89 -25 -127 7 -31 25 -32 29 -28 85 4 49 9 63 37
92 l32 33 -41 6 c-73 10 -114 50 -126 123 -9 57 17 84 81 84 91 0 153 -50 189
-152 24 -68 33 -45 10 28 -22 71 -88 146 -149 170 -115 43 -210 -42 -176 -157
14 -48 64 -107 97 -115 27 -7 30 -21 9 -48 -19 -25 -19 -106 -1 -151 31 -72
128 -97 196 -50 61 42 84 102 88 228 4 95 1 117 -23 194 -29 94 -60 148 -103
180 -25 18 -39 24 -93 39 -8 2 -24 -2 -34 -10z m-38 -132 c-3 -3 -12 -4 -19
-1 -8 3 -5 6 6 6 11 1 17 -2 13 -5z"/>
<path d="M945 951 c-70 -17 -122 -69 -154 -157 -34 -91 -43 -147 -39 -257 4
-119 30 -187 87 -224 121 -81 261 65 192 200 l-19 36 37 19 c78 41 120 169 74
230 -29 40 -91 59 -140 44 -89 -26 -163 -113 -178 -207 -6 -39 -5 -38 23 20
47 96 100 135 186 135 53 0 76 -22 76 -75 0 -73 -64 -135 -140 -135 l-32 0 31
-26 c58 -49 66 -153 14 -194 -54 -42 -148 -9 -178 64 -34 82 -26 248 17 348
22 52 84 114 120 123 13 2 36 6 53 7 20 2 31 9 33 22 4 16 -14 37 -28 35 -3
-1 -18 -4 -35 -8z m-8 -637 c-3 -3 -12 -4 -19 -1 -8 3 -5 6 6 6 11 1 17 -2 13
-5z"/>
<path d="M1468 683 c-16 -8 -28 -21 -28 -29 0 -17 12 -18 29 -1 11 10 12 7 6
-13 -40 -127 -65 -215 -65 -226 0 -19 55 -27 95 -14 65 21 95 91 58 132 -15
17 -15 20 6 42 12 13 24 39 27 58 5 29 2 38 -17 52 -28 19 -74 19 -111 -1z
m86 -9 c39 -15 -2 -107 -51 -117 -15 -3 -29 -4 -30 -3 -2 2 4 25 13 52 9 27
17 55 20 62 4 13 23 16 48 6z m-7 -162 c8 -33 -14 -73 -50 -90 -42 -20 -57
-10 -47 30 4 18 11 44 14 58 4 20 12 25 41 27 30 1 36 -2 42 -25z"/>
<path d="M2559 674 c-6 -16 -26 -77 -46 -136 -19 -60 -38 -110 -43 -113 -26
-16 -18 193 10 244 9 18 8 21 -9 21 -15 0 -22 -11 -30 -50 -6 -28 -11 -63 -11
-79 0 -18 -12 -38 -36 -62 l-36 -34 8 40 c3 22 11 48 16 58 6 12 5 17 -7 17
-8 0 -15 -5 -15 -12 0 -6 -6 -4 -13 6 -21 29 -56 11 -78 -40 -18 -39 -53 -73
-65 -61 -3 2 0 16 6 31 16 43 13 76 -8 76 -10 0 -23 -5 -30 -12 -9 -9 -12 -9
-12 0 0 7 -7 12 -15 12 -9 0 -15 -9 -15 -21 0 -24 -65 -93 -79 -84 -6 3 -5 23
4 53 8 26 15 48 15 50 0 1 -7 2 -15 2 -8 0 -18 -12 -21 -27 -7 -28 -50 -83
-66 -83 -12 0 -10 58 2 65 6 3 10 15 10 26 0 24 -32 26 -51 3 -12 -15 -11 -16
9 -10 29 10 29 -8 0 -29 -17 -12 -20 -18 -10 -24 7 -4 10 -14 7 -23 -3 -8 1
-20 9 -27 12 -10 20 -9 40 4 14 10 26 21 26 26 0 5 5 9 10 9 6 0 10 -7 10 -15
0 -27 30 -29 57 -4 l26 24 -6 -23 c-8 -34 16 -22 28 14 15 45 40 78 52 71 8
-5 9 -17 2 -40 -19 -68 0 -91 46 -55 25 20 26 20 40 2 12 -17 17 -17 35 -6 28
17 41 5 15 -14 -54 -39 -65 -55 -65 -88 0 -19 8 -42 17 -51 16 -16 18 -16 35
4 9 12 22 49 29 81 9 46 17 63 38 76 14 10 31 25 38 33 11 14 12 12 13 -12 0
-32 25 -97 37 -97 15 0 40 52 77 159 20 58 41 110 46 117 7 8 5 15 -5 24 -12
10 -16 7 -26 -16z m-219 -129 c11 -30 4 -52 -21 -66 -39 -20 -50 10 -24 61 19
37 32 38 45 5z m-13 -132 c-3 -5 -10 -27 -16 -50 -7 -24 -16 -43 -21 -43 -16
0 -11 62 7 82 16 17 39 26 30 11z"/>
<path d="M1903 618 c-7 -37 -19 -68 -29 -75 -24 -18 -31 -16 -37 6 -2 10 -14
24 -25 30 -18 10 -26 7 -52 -19 -37 -36 -42 -37 -55 -7 -6 13 -21 23 -37 25
-21 3 -30 -3 -42 -27 -27 -51 -18 -101 18 -101 26 0 37 8 59 43 20 31 37 35
37 8 0 -63 40 -67 93 -10 21 22 41 38 44 36 2 -3 0 -21 -5 -41 -6 -20 -7 -38
-3 -41 12 -6 21 5 21 26 0 10 5 30 11 46 7 15 13 37 14 48 2 11 10 41 18 68
15 44 15 47 -1 47 -13 0 -20 -15 -29 -62z m-218 -69 c9 -28 -8 -45 -25 -25
-13 17 -7 46 9 46 5 0 13 -9 16 -21z m131 6 c4 -8 3 -23 0 -32 -6 -15 -8 -15
-23 -1 -16 17 -12 48 7 48 6 0 13 -7 16 -15z m-166 -45 c0 -5 7 -10 16 -10 23
0 11 -24 -14 -28 -18 -3 -22 2 -22 22 0 14 5 26 10 26 6 0 10 -4 10 -10z m157
-25 c-7 -20 -42 -10 -45 12 -3 20 -1 21 22 10 14 -7 24 -16 23 -22z"/>
<path d="M2697 602 c-13 -60 -24 -85 -46 -106 -37 -35 -53 -28 -39 17 5 17 12
40 15 50 4 11 0 17 -11 17 -29 0 -42 -105 -14 -123 14 -9 22 -6 43 13 l25 23
0 -21 c0 -49 18 -16 43 77 30 112 32 131 14 131 -7 0 -19 -31 -30 -78z"/>
<path d="M2762 569 c-21 -98 -23 -133 -7 -118 2 3 16 48 29 100 14 52 28 102
31 112 5 12 2 17 -12 17 -15 0 -22 -17 -41 -111z"/>
<path d="M2063 655 c-3 -9 -3 -18 0 -21 9 -9 27 6 27 22 0 19 -19 18 -27 -1z"/>
<path d="M2627 663 c-13 -12 -7 -33 8 -33 8 0 15 9 15 20 0 20 -11 26 -23 13z"/>
<path d="M2841 563 c-69 -87 0 -155 84 -82 19 17 35 38 35 47 0 10 -12 2 -35
-21 -36 -37 -68 -47 -80 -26 -4 5 10 25 31 43 26 22 36 38 31 49 -10 25 -43
20 -66 -10z m39 -12 c-12 -23 -29 -35 -36 -28 -10 9 16 47 32 47 11 0 12 -4 4
-19z"/>
<path d="M222 423 c-18 -9 -45 -31 -58 -49 -70 -92 -19 -251 101 -309 48 -24
64 -27 137 -24 70 3 94 9 150 37 75 36 150 111 168 167 14 42 26 45 33 6 10
-49 103 -140 182 -178 60 -29 80 -33 147 -33 59 0 89 5 123 21 91 43 143 137
133 240 -4 43 -12 57 -46 92 -36 35 -47 41 -96 45 -59 5 -86 -7 -86 -38 0 -23
34 -38 99 -43 46 -4 59 -9 84 -37 26 -29 29 -38 23 -78 -15 -107 -86 -170
-201 -180 -178 -14 -341 117 -362 291 -6 48 -23 66 -23 24 0 -57 -43 -149 -96
-206 -62 -67 -128 -101 -215 -108 -152 -14 -259 69 -259 200 0 60 49 97 127
97 37 0 83 22 83 40 0 39 -88 53 -148 23z m103 -12 c6 -1 6 -4 0 -10 -10 -9
-124 -26 -115 -17 16 16 67 35 85 31 11 -2 24 -4 30 -4z m915 -10 c3 -4 12
-11 20 -14 18 -7 -88 2 -110 10 -12 4 -11 7 5 14 22 9 76 3 85 -10z"/>
<path d="M396 298 c-28 -39 -20 -86 19 -123 30 -29 42 -33 87 -33 53 -1 101
19 129 55 9 11 3 9 -18 -6 -40 -28 -97 -38 -108 -20 -5 7 -4 14 3 17 17 5 15
22 -3 22 -10 0 -15 -10 -15 -31 0 -30 -1 -31 -22 -17 -32 21 -33 35 -4 61 29
27 32 37 13 37 -21 0 -47 -34 -47 -61 -1 -23 -1 -23 -15 -5 -19 25 -19 60 0
76 17 14 21 50 6 50 -6 0 -17 -10 -25 -22z"/>
<path d="M1045 310 c-3 -5 4 -23 16 -39 20 -27 21 -33 9 -61 l-13 -32 -11 32
c-12 35 -40 60 -53 46 -4 -4 2 -16 15 -26 27 -22 29 -56 3 -70 -28 -15 -32
-13 -25 14 3 13 1 27 -6 31 -17 10 -25 -2 -11 -19 30 -36 -57 -31 -104 5 -14
12 -28 19 -31 17 -2 -3 12 -18 32 -33 49 -37 133 -45 180 -16 44 27 60 77 40
125 -15 36 -29 45 -41 26z"/>
</g>
</svg>
